ffmpeg version git-2013-08-16-ec0e0eb Copyright (c) 2000-2013 the FFmpeg developers
  built on Aug 16 2013 10:11:34 with gcc 4.4.7 (GCC) 20120313 (Red Hat 4.4.7-3)
  configuration: --prefix=/root/ffmpeg_build --extra-cflags=-I/root/ffmpeg_build/include --extra-ldflags=-L/root/ffmpeg_build/lib --bindir=/root/bin --extra-libs=-ldl --enable-gpl --enable-nonfree --enable-libfdk_aac --enable-libmp3lame --enable-libopus --enable-libvorbis --enable-libvpx --enable-libx264 --enable-libfreetype --enable-libspeex --enable-libtheora
  libavutil      52. 42.100 / 52. 42.100
  libavcodec     55. 28.100 / 55. 28.100
  libavformat    55. 13.102 / 55. 13.102
  libavdevice    55.  3.100 / 55.  3.100
  libavfilter     3. 82.100 /  3. 82.100
  libswscale      2.  5.100 /  2.  5.100
  libswresample   0. 17.103 /  0. 17.103
  libpostproc    52.  3.100 / 52.  3.100
[mp3 @ 0x3e61260] Header missing
[mp3 @ 0x3e61c60] Header missing
[h264 @ 0x3e62660] non-existing PPS referenced
[h264 @ 0x3e62660] non-existing PPS 0 referenced
[h264 @ 0x3e62660] decode_slice_header error
[h264 @ 0x3e62660] no frame!
[h264 @ 0x3e62660] non-existing PPS referenced
[h264 @ 0x3e62660] non-existing PPS 0 referenced
[h264 @ 0x3e62660] decode_slice_header error
[h264 @ 0x3e62660] no frame!
[h264 @ 0x3e62660] non-existing PPS referenced
[h264 @ 0x3e62660] non-existing PPS 0 referenced
[h264 @ 0x3e62660] decode_slice_header error
[h264 @ 0x3e62660] no frame!
[h264 @ 0x3e62660] non-existing PPS referenced
[h264 @ 0x3e62660] non-existing PPS 0 referenced
[h264 @ 0x3e62660] decode_slice_header error
[h264 @ 0x3e62660] no frame!
[h264 @ 0x3e62660] mmco: unref short failure
    Last message repeated 1 times
[mpegts @ 0x3e5d240] PES packet size mismatch
    Last message repeated 2 times
Input #0, mpegts, from '/mnt/media/BISS.ts':
  Duration: 03:46:20.77, start: 27901.627256, bitrate: 20992 kb/s
  Program 1 
    Metadata:
      service_name    : DKDR4
      service_provider: DR MCR
    Stream #0:0[0x100](dan): Audio: mp2 ([3][0][0][0] / 0x0003), 48000 Hz, stereo, s16p, 384 kb/s
    Stream #0:1[0x101](dan): Audio: mp2 ([3][0][0][0] / 0x0003), 48000 Hz, stereo, s16p, 384 kb/s
    Stream #0:2[0x134]: Video: h264 (High) ([27][0][0][0] / 0x001B), yuv420p, 1920x1080 [SAR 1:1 DAR 16:9], 25 fps, 25 tbr, 90k tbn, 50 tbc
-async is forwarded to lavfi similarly to -af aresample=async=1:min_hard_comp=0.100000:first_pts=0.
[libx264 @ 0x3e63ea0] using SAR=1/1
[libx264 @ 0x3e63ea0] frame MB size (120x68) > level limit (3600)
[libx264 @ 0x3e63ea0] DPB size (4 frames, 32640 mbs) > level limit (2 frames, 18000 mbs)
[libx264 @ 0x3e63ea0] MB rate (204000) > level limit (108000)
[libx264 @ 0x3e63ea0] using cpu capabilities: MMX2 SSE2Fast SSSE3 SSE4.2
[libx264 @ 0x3e63ea0] profile High, level 3.1
Output #0, mpegts, to 'udp://54.229.139.162:5001':
  Metadata:
    encoder         : Lavf55.13.102
    Stream #0:0: Video: h264 (libx264), yuv420p, 1920x1080 [SAR 1:1 DAR 16:9], q=-1--1, 5000 kb/s, 90k tbn, 25 tbc
    Stream #0:1(dan): Audio: aac (libfdk_aac), 48000 Hz, stereo, s16, 128 kb/s
Stream mapping:
  Stream #0:2 -> #0:0 (h264 -> libx264)
  Stream #0:1 -> #0:1 (mp2 -> libfdk_aac)
Press [q] to stop, [?] for help
[mp2 @ 0x3e61c60] Header missing
Error while decoding stream #0:1: Invalid data found when processing input
[h264 @ 0x513e2a0] reference picture missing during reorder
[h264 @ 0x513e2a0] Missing reference picture, default is 0
[h264 @ 0x513e2a0] decode_slice_header error
[h264 @ 0x51830e0] reference picture missing during reorder
[h264 @ 0x51830e0] Missing reference picture, default is 65546
[h264 @ 0x51f1a80] reference picture missing during reorder
[h264 @ 0x51f1a80] Missing reference picture, default is 65542
[h264 @ 0x533d7c0] mmco: unref short failure
frame=    0 fps=0.0 q=0.0 size=       0kB time=00:00:00.66 bitrate=   0.0kbits/s    frame=   32 fps= 25 q=0.0 size=       0kB time=00:00:01.36 bitrate=   0.0kbits/s dup=16 drop=0    frame=   38 fps= 20 q=25.0 size=     430kB time=00:00:01.51 bitrate=2324.5kbits/s dup=16 drop=0    frame=   42 fps= 17 q=32.0 size=     433kB time=00:00:01.68 bitrate=2106.1kbits/s dup=16 drop=0    frame=   50 fps= 16 q=28.0 size=     441kB time=00:00:01.96 bitrate=1840.7kbits/s dup=16 drop=0    frame=   51 fps= 12 q=26.0 size=     519kB time=00:00:02.02 bitrate=2098.7kbits/s dup=16 drop=0    frame=   56 fps=9.9 q=24.0 size=     659kB time=00:00:02.30 bitrate=2344.8kbits/s dup=16 drop=0    frame=   61 fps=9.2 q=28.0 size=     989kB time=00:00:02.45 bitrate=3301.9kbits/s dup=16 drop=0    frame=   66 fps=9.2 q=28.0 size=    1054kB time=00:00:02.58 bitrate=3345.5kbits/s dup=16 drop=0    frame=   70 fps=9.0 q=27.0 size=    1107kB time=00:00:02.73 bitrate=3321.2kbits/s dup=16 drop=0    frame=   77 fps=8.8 q=25.0 size=    1240kB time=00:00:03.15 bitrate=3216.8kbits/s dup=16 drop=0    frame=   81 fps=8.6 q=24.0 size=    1320kB time=00:00:03.30 bitrate=3270.7kbits/s dup=16 drop=0    frame=   85 fps=8.3 q=25.0 size=    1643kB time=00:00:03.45 bitrate=3894.5kbits/s dup=16 drop=0    frame=   90 fps=8.0 q=27.0 size=    1728kB time=00:00:03.60 bitrate=3926.3kbits/s dup=16 drop=0    frame=   93 fps=7.9 q=27.0 size=    1784kB time=00:00:03.69 bitrate=3959.8kbits/s dup=16 drop=0    frame=   98 fps=7.9 q=26.0 size=    1870kB time=00:00:03.88 bitrate=3944.5kbits/s dup=16 drop=0    frame=  102 fps=7.9 q=26.0 size=    1944kB time=00:00:04.09 bitrate=3888.9kbits/s dup=16 drop=0    frame=  106 fps=7.8 q=23.0 size=    2024kB time=00:00:04.24 bitrate=3905.1kbits/s dup=16 drop=0    frame=  110 fps=7.4 q=25.0 size=    2341kB time=00:00:04.41 bitrate=4343.4kbits/s dup=16 drop=0    frame=  114 fps=7.3 q=26.0 size=    2416kB time=00:00:04.56 bitrate=4335.1kbits/s dup=16 drop=0    frame=  120 fps=7.2 q=26.0 size=    2512kB time=00:00:04.75 bitrate=4325.2kbits/s dup=16 drop=0    frame=  126 fps=7.0 q=26.0 size=    2634kB time=00:00:05.14 bitrate=4196.9kbits/s dup=16 drop=0    frame=  130 fps=7.0 q=26.0 size=    2710kB time=00:00:05.26 bitrate=4213.4kbits/s dup=16 drop=0    frame=  134 fps=6.9 q=25.0 size=    3010kB time=00:00:05.41 bitrate=4551.1kbits/s dup=16 drop=0    frame=  137 fps=6.8 q=26.0 size=    3107kB time=00:00:05.46 bitrate=4659.9kbits/s dup=16 drop=0    frame=  141 fps=6.8 q=27.0 size=    3189kB time=00:00:05.61 bitrate=4656.5kbits/s dup=16 drop=0    frame=  146 fps=6.8 q=27.0 size=    3278kB time=00:00:05.84 bitrate=4593.8kbits/s dup=16 drop=0    frame=  151 fps=6.8 q=26.0 size=    3407kB time=00:00:06.14 bitrate=4542.8kbits/s dup=16 drop=0    frame=  156 fps=6.7 q=23.0 size=    3504kB time=00:00:06.25 bitrate=4591.6kbits/s dup=16 drop=0    frame=  160 fps=6.7 q=26.0 size=    3813kB time=00:00:06.40 bitrate=4880.2kbits/s dup=16 drop=0    frame=  165 fps=6.8 q=27.0 size=    3890kB time=00:00:06.54 bitrate=4866.1kbits/s dup=16 drop=0    frame=  169 fps=6.7 q=26.0 size=    3962kB time=00:00:06.72 bitrate=4829.6kbits/s dup=16 drop=0    frame=  176 fps=6.8 q=26.0 size=    4085kB time=00:00:07.12 bitrate=4696.3kbits/s dup=16 drop=0    frame=  181 fps=6.7 q=23.0 size=    4166kB time=00:00:07.27 bitrate=4691.0kbits/s dup=16 drop=0    frame=  185 fps=6.7 q=26.0 size=    4477kB time=00:00:07.40 bitrate=4954.1kbits/s dup=16 drop=0    frame=  186 fps=6.6 q=27.0 size=    4489kB time=00:00:07.40 bitrate=4967.3kbits/s dup=16 drop=0    frame=  190 fps=6.5 q=26.0 size=    4558kB time=00:00:07.55 bitrate=4944.4kbits/s dup=16 drop=0    frame=  194 fps=6.5 q=26.0 size=    4631kB time=00:00:07.70 bitrate=4926.2kbits/s dup=16 drop=0    frame=  198 fps=6.4 q=26.0 size=    4701kB time=00:00:07.97 bitrate=4827.2kbits/s dup=16 drop=0    frame=  202 fps=6.5 q=26.0 size=    4773kB time=00:00:08.12 bitrate=4810.8kbits/s dup=16 drop=0    frame=  206 fps=6.4 q=23.0 size=    4847kB time=00:00:08.29 bitrate=4785.1kbits/s dup=16 drop=0    frame=  210 fps=6.4 q=26.0 size=    5156kB time=00:00:08.36 bitrate=5051.0kbits/s dup=16 drop=0    frame=  214 fps=6.4 q=26.0 size=    5228kB time=00:00:08.51 bitrate=5031.1kbits/s dup=16 drop=0    frame=  218 fps=6.4 q=26.0 size=    5298kB time=00:00:08.72 bitrate=4974.1kbits/s dup=16 drop=0    frame=  222 fps=6.4 q=26.0 size=    5366kB time=00:00:08.93 bitrate=4917.3kbits/s dup=16 drop=0    frame=  228 fps=6.5 q=26.0 size=    5458kB time=00:00:09.13 bitrate=4897.3kbits/s dup=16 drop=0    frame=  232 fps=6.5 q=26.0 size=    5533kB time=00:00:09.28 bitrate=4884.1kbits/s dup=16 drop=0    frame=  236 fps=6.5 q=26.0 size=    5887kB time=00:00:09.42 bitrate=5114.1kbits/s dup=16 drop=0    frame=  240 fps=6.5 q=26.0 size=    5979kB time=00:00:09.57 bitrate=5113.2kbits/s dup=16 drop=0    frame=  243 fps=6.4 q=26.0 size=    6046kB time=00:00:09.74 bitrate=5079.9kbits/s dup=16 drop=0    frame=  248 fps=6.5 q=26.0 size=    6138kB time=00:00:10.00 bitrate=5025.6kbits/s dup=16 drop=0    frame=  251 fps=6.4 q=26.0 size=    6207kB time=00:00:10.09 bitrate=5039.5kbits/s dup=16 drop=0    frame=  256 fps=6.5 q=23.0 size=    6301kB time=00:00:10.28 bitrate=5020.3kbits/s dup=16 drop=0    frame=  260 fps=6.4 q=26.0 size=    6608kB time=00:00:10.36 bitrate=5221.5kbits/s dup=16 drop=0    frame=  264 fps=6.4 q=26.0 size=    6680kB time=00:00:10.53 bitrate=5192.2kbits/s dup=16 drop=0    frame=  268 fps=6.3 q=26.0 size=    6749kB time=00:00:10.81 bitrate=5111.5kbits/s dup=16 drop=0    frame=  273 fps=6.3 q=26.0 size=    6825kB time=00:00:10.94 bitrate=5108.8kbits/s dup=16 drop=0    frame=  277 fps=6.3 q=26.0 size=    6892kB time=00:00:11.09 bitrate=5089.6kbits/s dup=16 drop=0    frame=  281 fps=6.3 q=23.0 size=    6962kB time=00:00:11.22 bitrate=5082.8kbits/s dup=16 drop=0    frame=  286 fps=6.3 q=26.0 size=    7283kB time=00:00:11.37 bitrate=5247.3kbits/s dup=16 drop=0    frame=  289 fps=6.3 q=26.0 size=    7345kB time=00:00:11.54 bitrate=5213.4kbits/s dup=16 drop=0    frame=  294 fps=6.3 q=26.0 size=    7425kB time=00:00:11.79 bitrate=5156.2kbits/s dup=16 drop=0    frame=  298 fps=6.3 q=26.0 size=    7494kB time=00:00:11.96 bitrate=5129.3kbits/s dup=16 drop=0    frame=  306 fps=6.4 q=23.0 size=    7639kB time=00:00:12.24 bitrate=5110.3kbits/s dup=16 drop=0    frame=  310 fps=6.4 q=26.0 size=    7953kB time=00:00:12.39 bitrate=5256.3kbits/s dup=16 drop=0    frame=  314 fps=6.4 q=26.0 size=    8025kB time=00:00:12.54 bitrate=5240.6kbits/s dup=16 drop=0    frame=  318 fps=6.4 q=26.0 size=    8092kB time=00:00:12.75 bitrate=5196.5kbits/s dup=16 drop=0    frame=  322 fps=6.4 q=26.0 size=    8161kB time=00:00:12.90 bitrate=5179.6kbits/s dup=16 drop=0    frame=  326 fps=6.3 q=26.0 size=    8230kB time=00:00:13.05 bitrate=5163.8kbits/s dup=16 drop=0    frame=  330 fps=6.3 q=26.0 size=    8300kB time=00:00:13.24 bitrate=5132.6kbits/s dup=16 drop=0    frame=  336 fps=6.3 q=26.0 size=    8685kB time=00:00:13.39 bitrate=5310.3kbits/s dup=16 drop=0    frame=  340 fps=6.3 q=26.0 size=    8770kB time=00:00:13.69 bitrate=5245.4kbits/s dup=16 drop=0    frame=  344 fps=6.3 q=26.0 size=    8854kB time=00:00:13.82 bitrate=5246.9kbits/s dup=16 drop=0    frame=  348 fps=6.3 q=26.0 size=    8936kB time=00:00:13.97 bitrate=5238.8kbits/s dup=16 drop=0    frame=  352 fps=6.3 q=26.0 size=    9017kB time=00:00:14.10 bitrate=5238.1kbits/s dup=16 drop=0    frame=  357 fps=6.3 q=26.0 size=    9105kB time=00:00:14.25 bitrate=5233.9kbits/s dup=16 drop=0    frame=  361 fps=6.3 q=27.0 size=    9424kB time=00:00:14.40 bitrate=5361.0kbits/s dup=16 drop=0    frame=  366 fps=6.4 q=26.0 size=    9500kB time=00:00:14.67 bitrate=5302.6kbits/s dup=16 drop=0    frame=  370 fps=6.4 q=26.0 size=    9569kB time=00:00:14.82 bitrate=5287.3kbits/s dup=16 drop=0    frame=  373 fps=6.3 q=26.0 size=    9632kB time=00:00:14.89 bitrate=5299.0kbits/s dup=16 drop=0    frame=  377 fps=6.3 q=26.0 size=    9703kB time=00:00:15.06 bitrate=5277.4kbits/s dup=16 drop=0    frame=  382 fps=6.4 q=26.0 size=    9779kB time=00:00:15.27 bitrate=5244.5kbits/s dup=16 drop=0    frame=  387 fps=6.4 q=26.0 size=   10095kB time=00:00:15.50 bitrate=5332.3kbits/s dup=16 drop=0    frame=  391 fps=6.4 q=26.0 size=   10166kB time=00:00:15.70 bitrate=5304.2kbits/s dup=16 drop=0    frame=  394 fps=6.4 q=26.0 size=   10229kB time=00:00:15.76 bitrate=5315.4kbits/s dup=16 drop=0    frame=  398 fps=6.4 q=26.0 size=   10301kB time=00:00:15.91 bitrate=5302.4kbits/s dup=16 drop=0    frame=  402 fps=6.4 q=26.0 size=   10372kB time=00:00:16.08 bitrate=5282.5kbits/s dup=16 drop=0    frame=  406 fps=6.4 q=23.0 size=   10439kB time=00:00:16.19 bitrate=5281.5kbits/s dup=16 drop=0    frame=  410 fps=6.4 q=26.0 size=   10748kB time=00:00:16.36 bitrate=5380.8kbits/s dup=16 drop=0    frame=  414 fps=6.4 q=26.0 size=   10823kB time=00:00:16.66 bitrate=5321.5kbits/s dup=16 drop=0    frame=  420 fps=6.4 q=26.0 size=   10919kB time=00:00:16.85 bitrate=5307.6kbits/s dup=16 drop=0    frame=  426 fps=6.4 q=26.0 size=   11040kB time=00:00:17.00 bitrate=5319.3kbits/s dup=16 drop=0    frame=  430 fps=6.4 q=26.0 size=   11120kB time=00:00:17.15 bitrate=5311.2kbits/s dup=16 drop=0    frame=  434 fps=6.4 q=26.0 size=   11427kB time=00:00:17.36 bitrate=5390.8kbits/s dup=16 drop=0    frame=  435 fps=6.3 q=26.0 size=   11498kB time=00:00:17.45 bitrate=5397.6kbits/s dup=16 drop=0    frame=  440 fps=6.4 q=26.0 size=   11604kB time=00:00:17.64 bitrate=5388.1kbits/s dup=16 drop=0    frame=  444 fps=6.4 q=26.0 size=   11692kB time=00:00:17.81 bitrate=5377.0kbits/s dup=16 drop=0    frame=  446 fps=6.4 q=26.0 size=   11709kB time=00:00:17.87 bitrate=5365.7kbits/s dup=16 drop=0    frame=  450 fps=6.4 q=26.0 size=   11795kB time=00:00:18.02 bitrate=5360.1kbits/s dup=16 drop=0    frame=  456 fps=6.4 q=23.0 size=   11947kB time=00:00:18.24 bitrate=5365.7kbits/s dup=16 drop=0    frame=  461 fps=6.4 q=27.0 size=   12268kB time=00:00:18.49 bitrate=5433.4kbits/s dup=16 drop=0    frame=  465 fps=6.4 q=27.0 size=   12336kB time=00:00:18.64 bitrate=5420.0kbits/s dup=16 drop=0    frame=  469 fps=6.4 q=26.0 size=   12405kB time=00:00:18.79 bitrate=5407.1kbits/s dup=16 drop=0    frame=  473 fps=6.4 q=26.0 size=   12475kB time=00:00:18.92 bitrate=5400.5kbits/s dup=16 drop=0    frame=  476 fps=6.4 q=26.0 size=   12530kB time=00:00:19.02 bitrate=5394.2kbits/s dup=16 drop=0    frame=  480 fps=6.4 q=26.0 size=   12602kB time=00:00:19.17 bitrate=5383.0kbits/s dup=16 drop=0    frame=  485 fps=6.4 q=26.0 size=   12924kB time=00:00:19.43 bitrate=5447.7kbits/s dup=16 drop=0    frame=  486 fps=6.4 q=27.0 size=   12936kB time=00:00:19.54 bitrate=5423.0kbits/s dup=16 drop=0    frame=  490 fps=6.4 q=26.0 size=   13008kB time=00:00:19.66 bitrate=5417.5kbits/s dup=16 drop=0    frame=  494 fps=6.4 q=26.0 size=   13080kB time=00:00:19.73 bitrate=5429.8kbits/s dup=16 drop=0    frame=  498 fps=6.4 q=26.0 size=   13150kB time=00:00:19.88 bitrate=5418.1kbits/s dup=16 drop=0    frame=  502 fps=6.4 q=26.0 size=   13218kB time=00:00:20.03 bitrate=5405.3kbits/s dup=16 drop=0    frame=  505 fps=6.3 q=26.0 size=   13282kB time=00:00:20.18 bitrate=5391.2kbits/s dup=16 drop=0    frame=  510 fps=6.3 q=26.0 size=   13599kB time=00:00:20.43 bitrate=5450.9kbits/s dup=16 drop=0    frame=  512 fps=6.3 q=26.0 size=   13619kB time=00:00:20.52 bitrate=5436.2kbits/s dup=16 drop=0    frame=  514 fps=6.3 q=26.0 size=   13671kB time=00:00:20.60 bitrate=5434.5kbits/s dup=16 drop=0    frame=  518 fps=6.2 q=26.0 size=   13743kB time=00:00:20.75 bitrate=5423.9kbits/s dup=16 drop=0    frame=  522 fps=6.2 q=26.0 size=   13813kB time=00:00:20.90 bitrate=5412.3kbits/s dup=16 drop=0    frame=  526 fps=6.2 q=26.0 size=   13887kB time=00:00:21.03 bitrate=5408.4kbits/s dup=16 drop=0    frame=  531 fps=6.2 q=23.0 size=   13972kB time=00:00:21.26 bitrate=5381.3kbits/s dup=16 drop=0    frame=  535 fps=6.2 q=26.0 size=   14316kB time=00:00:21.48 bitrate=5459.0kbits/s dup=16 drop=0    frame=  538 fps=6.2 q=26.0 size=   14348kB time=00:00:21.52 bitrate=5460.4kbits/s dup=16 drop=0    frame=  541 fps=6.2 q=27.0 size=   14428kB time=00:00:21.67 bitrate=5453.0kbits/s dup=16 drop=0    frame=  544 fps=6.2 q=26.0 size=   14503kB time=00:00:21.80 bitrate=5449.2kbits/s dup=16 drop=0    frame=  548 fps=6.2 q=26.0 size=   14584kB time=00:00:21.90 bitrate=5452.9kbits/s dup=16 drop=0    frame=  554 fps=6.2 q=26.0 size=   14686kB time=00:00:22.10 bitrate=5443.5kbits/s dup=16 drop=0    frame=  557 fps=6.2 q=26.0 size=   14761kB time=00:00:22.33 bitrate=5413.8kbits/s dup=16 drop=0    frame=  562 fps=6.2 q=26.0 size=   15077kB time=00:00:22.48 bitrate=5493.1kbits/s dup=16 drop=0    frame=  566 fps=6.2 q=27.0 size=   15148kB time=00:00:22.61 bitrate=5487.6kbits/s dup=16 drop=0    frame=  570 fps=6.2 q=27.0 size=   15215kB time=00:00:22.76 bitrate=5475.7kbits/s dup=16 drop=0    frame=  577 fps=6.3 q=26.0 size=   15347kB time=00:00:23.04 bitrate=5456.8kbits/s dup=16 drop=0    frame=  579 fps=6.3 q=26.0 size=   15362kB time=00:00:23.21 bitrate=5421.9kbits/s dup=16 drop=0    frame=  585 fps=6.3 q=26.0 size=   15723kB time=00:00:23.40 bitrate=5503.8kbits/s dup=16 drop=0    frame=  590 fps=6.3 q=27.0 size=   15814kB time=00:00:23.53 bitrate=5505.6kbits/s dup=16 drop=0    frame=  593 fps=6.2 q=27.0 size=   15874kB time=00:00:23.70 bitrate=5486.4kbits/s dup=16 drop=0    frame=  597 fps=6.2 q=26.0 size=   15945kB time=00:00:23.85 bitrate=5476.7kbits/s dup=16 drop=0    frame=  601 fps=6.3 q=26.0 size=   16022kB time=00:00:24.00 bitrate=5468.9kbits/s dup=16 drop=0    frame=  606 fps=6.3 q=24.0 size=   16110kB time=00:00:24.25 bitrate=5441.0kbits/s dup=16 drop=0    frame=  610 fps=6.3 q=26.0 size=   16414kB time=00:00:24.42 bitrate=5504.7kbits/s dup=16 drop=0    frame=  614 fps=6.3 q=27.0 size=   16490kB time=00:00:24.57 bitrate=5496.7kbits/s dup=16 drop=0    frame=  618 fps=6.3 q=27.0 size=   16565kB time=00:00:24.72 bitrate=5488.4kbits/s dup=16 drop=0    frame=  622 fps=6.2 q=26.0 size=   16642kB time=00:00:24.85 bitrate=5485.4kbits/s dup=16 drop=0    frame=  626 fps=6.2 q=26.0 size=   16715kB time=00:00:25.00 bitrate=5476.6kbits/s dup=16 drop=0    frame=  627 fps=6.2 q=26.0 size=   16728kB time=00:00:25.06 bitrate=5466.8kbits/s dup=16 drop=0    frame=  632 fps=6.2 q=26.0 size=   16809kB time=00:00:25.34 bitrate=5433.3kbits/s dup=16 drop=0    frame=  636 fps=6.2 q=27.0 size=   17156kB time=00:00:25.40 bitrate=5531.4kbits/s dup=16 drop=0    frame=  640 fps=6.2 q=27.0 size=   17247kB time=00:00:25.55 bitrate=5528.1kbits/s dup=16 drop=0    frame=  643 fps=6.1 q=27.0 size=   17319kB time=00:00:25.72 bitrate=5514.4kbits/s dup=16 drop=0    frame=  648 fps=6.1 q=27.0 size=   17423kB time=00:00:25.92 bitrate=5506.5kbits/s dup=16 drop=0    frame=  651 fps=6.1 q=27.0 size=   17496kB time=00:00:26.09 bitrate=5493.5kbits/s dup=16 drop=0    frame=  655 fps=6.0 q=27.0 size=   17584kB time=00:00:26.30 bitrate=5476.4kbits/s dup=16 drop=0    frame=  660 fps=6.0 q=26.0 size=   17906kB time=00:00:26.45 bitrate=5545.2kbits/s dup=16 drop=0    frame=  665 fps=6.0 q=27.0 size=   17998kB time=00:00:26.56 bitrate=5551.3kbits/s dup=16 drop=0    frame=  669 fps=6.0 q=27.0 size=   18075kB time=00:00:26.70 bitrate=5543.7kbits/s dup=16 drop=0    frame=  673 fps=6.0 q=27.0 size=   18153kB time=00:00:26.85 bitrate=5536.7kbits/s dup=16 drop=0    frame=  677 fps=6.0 q=27.0 size=   18227kB time=00:00:27.13 bitrate=5502.4kbits/s dup=16 drop=0    frame=  681 fps=6.0 q=24.0 size=   18299kB time=00:00:27.28 bitrate=5494.0kbits/s dup=16 drop=0    frame=  686 fps=6.0 q=27.0 size=   18621kB time=00:00:27.43 bitrate=5560.2kbits/s dup=16 drop=0    frame=  690 fps=6.0 q=27.0 size=   18696kB time=00:00:27.56 bitrate=5556.6kbits/s dup=16 drop=0    frame=  694 fps=6.0 q=27.0 size=   18766kB time=00:00:27.71 bitrate=5547.6kbits/s dup=16 drop=0    frame=  698 fps=6.0 q=27.0 size=   18843kB time=00:00:27.86 bitrate=5540.4kbits/s dup=16 drop=0    frame=  701 fps=6.0 q=27.0 size=   18902kB time=00:00:28.09 bitrate=5511.3kbits/s dup=16 drop=0    frame=  706 fps=6.0 q=24.0 size=   18985kB time=00:00:28.24 bitrate=5506.3kbits/s dup=16 drop=0    frame=  710 fps=6.0 q=26.0 size=   19279kB time=00:00:28.39 bitrate=5562.2kbits/s dup=16 drop=0    frame=  714 fps=6.0 q=27.0 size=   19349kB time=00:00:28.52 bitrate=5557.2kbits/s dup=16 drop=0    frame=  718 fps=6.0 q=27.0 size=   19421kB time=00:00:28.67 bitrate=5548.8kbits/s dup=16 drop=0    frame=  722 fps=6.0 q=27.0 size=   19487kB time=00:00:28.88 bitrate=5526.5kbits/s dup=16 drop=0    frame=  726 fps=6.0 q=27.0 size=   19551kB time=00:00:29.09 bitrate=5504.1kbits/s dup=16 drop=0    frame=  730 fps=6.0 q=27.0 size=   19619kB time=00:00:29.22 bitrate=5499.0kbits/s dup=16 drop=0    frame=  733 fps=6.0 q=26.0 size=   19646kB time=00:00:29.33 bitrate=5486.6kbits/s dup=16 drop=0    frame=  737 fps=6.0 q=27.0 size=   19981kB time=00:00:29.46 bitrate=5555.8kbits/s dup=16 drop=0    frame=  740 fps=6.0 q=27.0 size=   20054kB time=00:00:29.58 bitrate=5552.2kbits/s dup=16 drop=0    frame=  744 fps=6.0 q=27.0 size=   20141kB time=00:00:29.73 bitrate=5548.2kbits/s dup=16 drop=0    frame=  747 fps=6.0 q=27.0 size=   20208kB time=00:00:29.90 bitrate=5534.9kbits/s dup=16 drop=0    frame=  751 fps=6.0 q=27.0 size=   20287kB time=00:00:30.12 bitrate=5517.3kbits/s dup=16 drop=0    frame=  753 fps=6.0 q=27.0 size=   20313kB time=00:00:30.16 bitrate=5516.4kbits/s dup=16 drop=0    frame=  758 fps=6.0 q=27.0 size=   20403kB time=00:00:30.33 bitrate=5509.6kbits/s dup=16 drop=0    frame=  760 fps=6.0 q=27.0 size=   20685kB time=00:00:30.40 bitrate=5574.2kbits/s dup=16 drop=0    frame=  764 fps=6.0 q=27.0 size=   20755kB time=00:00:30.54 bitrate=5565.7kbits/s dup=16 drop=0    frame=  769 fps=6.0 q=27.0 size=   20846kB time=00:00:30.74 bitrate=5555.1kbits/s dup=16 drop=0    frame=  772 fps=6.0 q=27.0 size=   20903kB time=00:00:30.97 bitrate=5528.0kbits/s dup=16 drop=0    frame=  777 fps=6.0 q=27.0 size=   20988kB time=00:00:31.10 bitrate=5527.8kbits/s dup=16 drop=0    frame=  780 fps=6.0 q=27.0 size=   21044kB time=00:00:31.25 bitrate=5516.1kbits/s dup=16 drop=0    frame=  781 fps=6.0 q=24.0 size=   21057kB time=00:00:31.25 bitrate=5519.5kbits/s dup=16 drop=0    frame=  786 fps=5.9 q=27.0 size=   21373kB time=00:00:31.38 bitrate=5579.3kbits/s dup=16 drop=0    frame=  790 fps=5.9 q=27.0 size=   21443kB time=00:00:31.53 bitrate=5571.1kbits/s dup=16 drop=0    frame=  793 fps=5.9 q=27.0 size=   21500kB time=00:00:31.70 bitrate=5556.0kbits/s dup=16 drop=0    frame=  798 fps=5.9 q=27.0 size=   21583kB time=00:00:31.97 bitrate=5528.9kbits/s dup=16 drop=0    frame=  802 fps=5.9 q=27.0 size=   21652kB time=00:00:32.10 bitrate=5524.4kbits/s dup=16 drop=0    frame=  806 fps=5.9 q=24.0 size=   21718kB time=00:00:32.25 bitrate=5515.6kbits/s dup=16 drop=0    frame=  810 fps=5.9 q=26.0 size=   22004kB time=00:00:32.40 bitrate=5562.5kbits/s dup=16 drop=0    frame=  813 fps=5.9 q=27.0 size=   22028kB time=00:00:32.46 bitrate=5557.6kbits/s dup=16 drop=0    frame=  814 fps=5.9 q=27.0 size=   22067kB time=00:00:32.55 bitrate=5553.0kbits/s dup=16 drop=0    frame=  819 fps=5.9 q=27.0 size=   22138kB time=00:00:32.78 bitrate=5530.8kbits/s dup=16 drop=0    frame=  826 fps=5.9 q=27.0 size=   22249kB time=00:00:33.06 bitrate=5512.0kbits/s dup=16 drop=0    frame=  830 fps=5.9 q=26.0 size=   22309kB time=00:00:33.21 bitrate=5502.0kbits/s dup=16 drop=0    frame=  836 fps=6.0 q=27.0 size=   22649kB time=00:00:33.40 bitrate=5553.8kbits/s dup=16 drop=0    frame=  839 fps=5.9 q=27.0 size=   22720kB time=00:00:33.57 bitrate=5543.0kbits/s dup=16 drop=0    frame=  843 fps=5.9 q=27.0 size=   22792kB time=00:00:33.70 bitrate=5539.4kbits/s dup=16 drop=0    frame=  849 fps=6.0 q=27.0 size=   22883kB time=00:00:33.98 bitrate=5516.2kbits/s dup=16 drop=0    frame=  852 fps=5.9 q=26.0 size=   22952kB time=00:00:34.13 bitrate=5508.4kbits/s dup=16 drop=0    frame=  856 fps=5.9 q=24.0 size=   23022kB time=00:00:34.26 bitrate=5504.8kbits/s dup=16 drop=0    frame=  859 fps=5.9 q=26.0 size=   23273kB time=00:00:34.36 bitrate=5547.4kbits/s dup=16 drop=0    frame=  865 fps=5.9 q=27.0 size=   23392kB time=00:00:34.56 bitrate=5544.8kbits/s dup=16 drop=0    frame=  870 fps=5.9 q=27.0 size=   23462kB time=00:00:34.83 bitrate=5517.1kbits/s dup=16 drop=0    frame=  874 fps=5.9 q=26.0 size=   23525kB time=00:00:34.98 bitrate=5508.3kbits/s dup=16 drop=0    frame=  880 fps=5.9 q=26.0 size=   23634kB time=00:00:35.22 bitrate=5497.0kbits/s dup=16 drop=0    frame=  885 fps=5.9 q=26.0 size=   23940kB time=00:00:35.34 bitrate=5548.0kbits/s dup=16 drop=0    frame=  889 fps=5.9 q=26.0 size=   24011kB time=00:00:35.52 bitrate=5537.6kbits/s dup=16 drop=0    frame=  894 fps=5.9 q=26.0 size=   24088kB time=00:00:35.77 bitrate=5515.7kbits/s dup=16 drop=0    frame=  898 fps=5.9 q=26.0 size=   24152kB time=00:00:35.92 bitrate=5507.4kbits/s dup=16 drop=0    frame=  902 fps=5.9 q=26.0 size=   24217kB time=00:00:36.07 bitrate=5499.4kbits/s dup=16 drop=0    frame=  906 fps=5.8 q=23.0 size=   24282kB time=00:00:36.20 bitrate=5494.6kbits/s dup=16 drop=0    frame=  910 fps=5.8 q=26.0 size=   24580kB time=00:00:36.35 bitrate=5539.2kbits/s dup=16 drop=0    frame=  914 fps=5.8 q=26.0 size=   24649kB time=00:00:36.50 bitrate=5531.9kbits/s dup=16 drop=0    frame=  915 fps=5.8 q=26.0 size=   24659kB time=00:00:36.67 bitrate=5508.6kbits/s dup=16 drop=0    frame=  921 fps=5.8 q=26.0 size=   24737kB time=00:00:36.86 bitrate=5497.0kbits/s dup=16 drop=0    frame=  924 fps=5.8 q=26.0 size=   24796kB time=00:00:37.01 bitrate=5487.9kbits/s dup=16 drop=0    frame=  926 fps=5.8 q=26.0 size=   24841kB time=00:00:37.09 bitrate=5485.3kbits/s dup=16 drop=0    frame=  930 fps=5.8 q=26.0 size=   24907kB time=00:00:37.16 bitrate=5490.5kbits/s dup=16 drop=0    frame=  936 fps=5.8 q=26.0 size=   25276kB time=00:00:37.44 bitrate=5530.5kbits/s dup=16 drop=0    frame=  939 fps=5.8 q=26.0 size=   25345kB time=00:00:37.61 bitrate=5520.5kbits/s dup=16 drop=0    frame=  944 fps=5.8 q=26.0 size=   25437kB time=00:00:37.80 bitrate=5512.4kbits/s dup=16 drop=0    frame=  948 fps=5.8 q=26.0 size=   25517kB time=00:00:37.93 bitrate=5510.9kbits/s dup=16 drop=0    frame=  952 fps=5.8 q=26.0 size=   25593kB time=00:00:38.10 bitrate=5502.6kbits/s dup=16 drop=0    frame=  956 fps=5.8 q=23.0 size=   25669kB time=00:00:38.22 bitrate=5500.4kbits/s dup=16 drop=0    frame=  961 fps=5.8 q=26.0 size=   25989kB time=00:00:38.40 bitrate=5544.3kbits/s dup=16 drop=0    frame=  966 fps=5.8 q=26.0 size=   26064kB time=00:00:38.65 bitrate=5523.5kbits/s dup=16 drop=0    frame=  970 fps=5.8 q=26.0 size=   26129kB time=00:00:38.80 bitrate=5515.9kbits/s dup=16 drop=0    frame=  973 fps=5.8 q=26.0 size=   26182kB time=00:00:38.95 bitrate=5506.0kbits/s dup=16 drop=0    frame=  977 fps=5.8 q=26.0 size=   26244kB time=00:00:39.08 bitrate=5501.0kbits/s dup=16 drop=0    frame=  981 fps=5.8 q=23.0 size=   26308kB time=00:00:39.23 bitrate=5493.2kbits/s dup=16 drop=0    frame=  986 fps=5.8 q=26.0 size=   26615kB time=00:00:39.38 bitrate=5536.4kbits/s dup=16 drop=0    frame=  990 fps=5.8 q=26.0 size=   26680kB time=00:00:39.65 bitrate=5511.1kbits/s dup=16 drop=0    frame=  994 fps=5.8 q=26.0 size=   26746kB time=00:00:39.82 bitrate=5501.2kbits/s dup=16 drop=0    frame=  997 fps=5.8 q=26.0 size=   26802kB time=00:00:39.91 bitrate=5500.7kbits/s dup=16 drop=0    frame= 1003 fps=5.8 q=26.0 size=   26886kB time=00:00:40.12 bitrate=5488.7kbits/s dup=16 drop=0    frame= 1006 fps=5.8 q=23.0 size=   26942kB time=00:00:40.17 bitrate=5494.2kbits/s dup=16 drop=0    frame= 1010 fps=5.8 q=26.0 size=   27247kB time=00:00:40.40 bitrate=5524.2kbits/s dup=16 drop=0    frame= 1016 fps=5.8 q=26.0 size=   27336kB time=00:00:40.68 bitrate=5504.5kbits/s dup=16 drop=0    frame= 1020 fps=5.9 q=26.0 size=   27398kB time=00:00:40.81 bitrate=5499.7kbits/s dup=16 drop=0    frame= 1026 fps=5.9 q=26.0 size=   27505kB time=00:00:41.06 bitrate=5486.7kbits/s dup=16 drop=0    frame= 1030 fps=5.9 q=26.0 size=   27574kB time=00:00:41.19 bitrate=5483.4kbits/s dup=16 drop=0    frame= 1034 fps=5.9 q=26.0 size=   27876kB time=00:00:41.34 bitrate=5523.5kbits/s dup=16 drop=0    frame= 1035 fps=5.8 q=26.0 size=   27937kB time=00:00:41.42 bitrate=5524.0kbits/s dup=16 drop=0    frame= 1040 fps=5.8 q=26.0 size=   28033kB time=00:00:41.68 bitrate=5509.0kbits/s dup=16 drop=0    frame= 1043 fps=5.8 q=26.0 size=   28102kB time=00:00:41.77 bitrate=5511.3kbits/s dup=16 drop=0    frame= 1047 fps=5.8 q=26.0 size=   28178kB time=00:00:41.92 bitrate=5506.5kbits/s dup=16 drop=0    frame= 1051 fps=5.8 q=26.0 size=   28257kB time=00:00:42.06 bitrate=5502.3kbits/s dup=16 drop=0    frame= 1055 fps=5.8 q=26.0 size=   28344kB time=00:00:42.21 bitrate=5499.8kbits/s dup=16 drop=0    frame= 1060 fps=5.8 q=26.0 size=   28665kB time=00:00:42.49 bitrate=5525.9kbits/s dup=16 drop=0    frame= 1065 fps=5.8 q=26.0 size=   28745kB time=00:00:42.62 bitrate=5524.6kbits/s dup=16 drop=0    frame= 1069 fps=5.8 q=26.0 size=   28808kB time=00:00:42.77 bitrate=5517.2kbits/s dup=16 drop=0    frame= 1073 fps=5.8 q=26.0 size=   28870kB time=00:00:42.90 bitrate=5512.7kbits/s dup=16 drop=0    frame= 1077 fps=5.8 q=26.0 size=   28933kB time=00:00:43.05 bitrate=5505.7kbits/s dup=16 drop=0    frame= 1081 fps=5.8 q=23.0 size=   29004kB time=00:00:43.20 bitrate=5500.0kbits/s dup=16 drop=0    frame= 1086 fps=5.8 q=26.0 size=   29325kB time=00:00:43.47 bitrate=5525.5kbits/s dup=16 drop=0    frame= 1090 fps=5.9 q=26.0 size=   29394kB time=00:00:43.62 bitrate=5519.5kbits/s dup=16 drop=0    frame= 1094 fps=5.9 q=26.0 size=   29462kB time=00:00:43.77 bitrate=5513.3kbits/s dup=16 drop=0    frame= 1098 fps=5.9 q=26.0 size=   29526kB time=00:00:43.92 bitrate=5506.5kbits/s dup=16 drop=0    frame= 1102 fps=5.9 q=26.0 size=   29591kB time=00:00:44.07 bitrate=5499.9kbits/s dup=16 drop=0    frame= 1106 fps=5.9 q=23.0 size=   29662kB time=00:00:44.22 bitrate=5494.6kbits/s dup=16 drop=0    frame= 1110 fps=5.9 q=26.0 size=   29968kB time=00:00:44.43 bitrate=5524.6kbits/s dup=16 drop=0    frame= 1114 fps=5.9 q=26.0 size=   30036kB time=00:00:44.58 bitrate=5518.7kbits/s dup=16 drop=0    frame= 1118 fps=5.8 q=26.0 size=   30101kB time=00:00:44.73 bitrate=5512.0kbits/s dup=16 drop=0    frame= 1122 fps=5.8 q=26.0 size=   30166kB time=00:00:44.88 bitrate=5505.6kbits/s dup=16 drop=0    frame= 1126 fps=5.8 q=26.0 size=   30236kB time=00:00:45.01 bitrate=5502.6kbits/s dup=16 drop=0    frame= 1130 fps=5.8 q=26.0 size=   30301kB time=00:00:45.16 bitrate=5496.2kbits/s dup=16 drop=0    frame= 1136 fps=5.8 q=26.0 size=   30669kB time=00:00:45.50 bitrate=5521.3kbits/s dup=16 drop=0    frame= 1140 fps=5.8 q=26.0 size=   30755kB time=00:00:45.65 bitrate=5518.7kbits/s dup=16 drop=0    frame= 1145 fps=5.8 q=26.0 size=   30842kB time=00:00:45.78 bitrate=5518.9kbits/s dup=16 drop=0    frame= 1150 fps=5.8 q=26.0 size=   30929kB time=00:00:45.93 bitrate=5516.4kbits/s dup=16 drop=0    frame= 1155 fps=5.8 q=26.0 size=   31066kB time=00:00:46.25 bitrate=5502.4kbits/s dup=16 drop=0    frame= 1160 fps=5.8 q=26.0 size=   31388kB time=00:00:46.46 bitrate=5534.0kbits/s dup=16 drop=0    frame= 1164 fps=5.8 q=26.0 size=   31458kB time=00:00:46.61 bitrate=5528.5kbits/s dup=16 drop=0    frame= 1168 fps=5.8 q=26.0 size=   31527kB time=00:00:46.74 bitrate=5525.5kbits/s dup=16 drop=0    frame= 1170 fps=5.8 q=26.0 size=   31547kB time=00:00:46.80 bitrate=5521.4kbits/s dup=16 drop=0    frame= 1174 fps=5.8 q=26.0 size=   31612kB time=00:00:46.95 bitrate=5515.2kbits/s dup=16 drop=0    frame= 1178 fps=5.9 q=26.0 size=   31685kB time=00:00:47.08 bitrate=5512.9kbits/s dup=16 drop=0    frame= 1181 fps=5.8 q=23.0 size=   31744kB time=00:00:47.29 bitrate=5498.3kbits/s dup=16 drop=0    